<svg id="about" width="288" height="46" viewBox="0 0 288 46" fill="none" xmlns="http://www.w3.org/2000/svg">
<def>
    <style>

        #about .pronter {
            opacity: 0;
            animation: console 1s step-end 6, move-pronter 6s step-end;
        } 

        #about .letter-a {
            opacity: 1;
            animation: write-letter 1s step-end;
        } 

        #about .letter-b {
            opacity: 1;
            animation: hide 1s step-end, write-letter 1s step-end 1s; 
        } 

        #about .letter-o {
            opacity: 1;
            animation: hide 2s step-end, write-letter 1s step-end 2s;
        } 

        #about .letter-u {
            opacity: 1;
            animation: hide 3s step-end, write-letter 1s step-end 3s;
        } 

        #about .letter-t {
            opacity: 1;
            animation: hide 4s step-end, write-letter 1s step-end 4s;
        } 

        @keyframes hide {
            0%, 100% {
                opacity: 0;
            }
        }

        @keyframes write-letter {
            0%, 70% {
                opacity: 0;
            }
            71% {
                opacity: 1;
            }
        }

        @keyframes console {
            0%,
            100% {
                opacity: 0;
            }
            25%,
            50% {
                opacity: 1;
            }
        }

        @keyframes move-pronter {
            0% {
                transform: translateX(0px);
            }
            16% {
                transform: translateX(48px);
            }
            32% {
                transform: translateX(96px);
            }
            48% {
                transform: translateX(144px);
            }
            64% {
                transform: translateX(192px);
            }
            79% {
                transform: translateX(240px);
            }
        }
    </style>
        
</def>

<path class="letter-t" d="M227.047 25.92L223.687 29.28H206.887V19.2H227.047V12.48H206.887V5.76H200.167V36H227.047L233.767 29.28V25.92H227.047Z" fill="#0F0F0F"/>
<path class="letter-t" d="M227.047 25.92V24.92H226.633L226.34 25.2129L227.047 25.92ZM223.687 29.28V30.28H224.101L224.394 29.9871L223.687 29.28ZM206.887 29.28H205.887V30.28H206.887V29.28ZM206.887 19.2V18.2H205.887V19.2H206.887ZM227.047 19.2V20.2H228.047V19.2H227.047ZM227.047 12.48H228.047V11.48H227.047V12.48ZM206.887 12.48H205.887V13.48H206.887V12.48ZM206.887 5.76H207.887V4.76H206.887V5.76ZM200.167 5.76V4.76H199.167V5.76H200.167ZM200.167 36H199.167V37H200.167V36ZM227.047 36V37H227.461L227.754 36.7071L227.047 36ZM233.767 29.28L234.474 29.9871L234.767 29.6942V29.28H233.767ZM233.767 25.92H234.767V24.92H233.767V25.92ZM226.34 25.2129L222.98 28.5729L224.394 29.9871L227.754 26.6271L226.34 25.2129ZM223.687 28.28H206.887V30.28H223.687V28.28ZM207.887 29.28V19.2H205.887V29.28H207.887ZM206.887 20.2H227.047V18.2H206.887V20.2ZM228.047 19.2V12.48H226.047V19.2H228.047ZM227.047 11.48H206.887V13.48H227.047V11.48ZM207.887 12.48V5.76H205.887V12.48H207.887ZM206.887 4.76H200.167V6.76H206.887V4.76ZM199.167 5.76V36H201.167V5.76H199.167ZM200.167 37H227.047V35H200.167V37ZM227.754 36.7071L234.474 29.9871L233.06 28.5729L226.34 35.2929L227.754 36.7071ZM234.767 29.28V25.92H232.767V29.28H234.767ZM233.767 24.92H227.047V26.92H233.767V24.92Z" fill="#0F0F0F"/>

<path class="letter-u" d="M177.84 12.48V29.28H161.04L157.68 25.92V12.48H150.96V29.28L157.68 36H184.56V12.48H177.84Z" fill="#0F0F0F"/>
<path class="letter-u" d="M177.84 12.48V11.48H176.84V12.48H177.84ZM177.84 29.28V30.28H178.84V29.28H177.84ZM161.04 29.28L160.333 29.9871L160.626 30.28H161.04V29.28ZM157.68 25.92H156.68V26.3342L156.973 26.6271L157.68 25.92ZM157.68 12.48H158.68V11.48H157.68V12.48ZM150.96 12.48V11.48H149.96V12.48H150.96ZM150.96 29.28H149.96V29.6942L150.253 29.9871L150.96 29.28ZM157.68 36L156.973 36.7071L157.266 37H157.68V36ZM184.56 36V37H185.56V36H184.56ZM184.56 12.48H185.56V11.48H184.56V12.48ZM176.84 12.48V29.28H178.84V12.48H176.84ZM177.84 28.28H161.04V30.28H177.84V28.28ZM161.747 28.5729L158.387 25.2129L156.973 26.6271L160.333 29.9871L161.747 28.5729ZM158.68 25.92V12.48H156.68V25.92H158.68ZM157.68 11.48H150.96V13.48H157.68V11.48ZM149.96 12.48V29.28H151.96V12.48H149.96ZM150.253 29.9871L156.973 36.7071L158.387 35.2929L151.667 28.5729L150.253 29.9871ZM157.68 37H184.56V35H157.68V37ZM185.56 36V12.48H183.56V36H185.56ZM184.56 11.48H177.84V13.48H184.56V11.48Z" fill="#0F0F0F"/>

<path class="letter-o" d="M130.075 12.48H103.195V29.28L109.915 36H136.795V19.2L130.075 12.48ZM130.075 29.28H113.275L109.915 25.92V19.2H126.715L130.075 22.56V29.28Z" fill="#0F0F0F"/>
<path class="letter-o" d="M130.075 12.48L130.782 11.7729L130.489 11.48H130.075V12.48ZM103.195 12.48V11.48H102.195V12.48H103.195ZM103.195 29.28H102.195V29.6942L102.488 29.9871L103.195 29.28ZM109.915 36L109.208 36.7071L109.501 37H109.915V36ZM136.795 36V37H137.795V36H136.795ZM136.795 19.2H137.795V18.7858L137.502 18.4929L136.795 19.2ZM130.075 29.28V30.28H131.075V29.28H130.075ZM113.275 29.28L112.568 29.9871L112.861 30.28H113.275V29.28ZM109.915 25.92H108.915V26.3342L109.208 26.6271L109.915 25.92ZM109.915 19.2V18.2H108.915V19.2H109.915ZM126.715 19.2L127.422 18.4929L127.129 18.2H126.715V19.2ZM130.075 22.56H131.075V22.1458L130.782 21.8529L130.075 22.56ZM130.075 11.48H103.195V13.48H130.075V11.48ZM102.195 12.48V29.28H104.195V12.48H102.195ZM102.488 29.9871L109.208 36.7071L110.622 35.2929L103.902 28.5729L102.488 29.9871ZM109.915 37H136.795V35H109.915V37ZM137.795 36V19.2H135.795V36H137.795ZM137.502 18.4929L130.782 11.7729L129.368 13.1871L136.088 19.9071L137.502 18.4929ZM130.075 28.28H113.275V30.28H130.075V28.28ZM113.982 28.5729L110.622 25.2129L109.208 26.6271L112.568 29.9871L113.982 28.5729ZM110.915 25.92V19.2H108.915V25.92H110.915ZM109.915 20.2H126.715V18.2H109.915V20.2ZM126.008 19.9071L129.368 23.2671L130.782 21.8529L127.422 18.4929L126.008 19.9071ZM129.075 22.56V29.28H131.075V22.56H129.075Z" fill="#0F0F0F"/>

<path class="letter-b" d="M82.3204 12.48H62.1604V5.76H55.4404V36H89.0404V19.2L82.3204 12.48ZM82.3204 29.28H62.1604V19.344H78.9604L82.3204 22.704V29.28Z" fill="#0F0F0F"/>
<path class="letter-b" d="M82.3204 12.48L83.0275 11.7729L82.7346 11.48H82.3204V12.48ZM62.1604 12.48H61.1604V13.48H62.1604V12.48ZM62.1604 5.76H63.1604V4.76H62.1604V5.76ZM55.4404 5.76V4.76H54.4404V5.76H55.4404ZM55.4404 36H54.4404V37H55.4404V36ZM89.0404 36V37H90.0404V36H89.0404ZM89.0404 19.2H90.0404V18.7858L89.7475 18.4929L89.0404 19.2ZM82.3204 29.28V30.28H83.3204V29.28H82.3204ZM62.1604 29.28H61.1604V30.28H62.1604V29.28ZM62.1604 19.344V18.344H61.1604V19.344H62.1604ZM78.9604 19.344L79.6675 18.6369L79.3746 18.344H78.9604V19.344ZM82.3204 22.704H83.3204V22.2898L83.0275 21.9969L82.3204 22.704ZM82.3204 11.48H62.1604V13.48H82.3204V11.48ZM63.1604 12.48V5.76H61.1604V12.48H63.1604ZM62.1604 4.76H55.4404V6.76H62.1604V4.76ZM54.4404 5.76V36H56.4404V5.76H54.4404ZM55.4404 37H89.0404V35H55.4404V37ZM90.0404 36V19.2H88.0404V36H90.0404ZM89.7475 18.4929L83.0275 11.7729L81.6133 13.1871L88.3333 19.9071L89.7475 18.4929ZM82.3204 28.28H62.1604V30.28H82.3204V28.28ZM63.1604 29.28V19.344H61.1604V29.28H63.1604ZM62.1604 20.344H78.9604V18.344H62.1604V20.344ZM78.2533 20.0511L81.6133 23.4111L83.0275 21.9969L79.6675 18.6369L78.2533 20.0511ZM81.3204 22.704V29.28H83.3204V22.704H81.3204Z" fill="#0F0F0F"/>

<path class="letter-a" d="M37.4321 2.4H10.5521L3.83213 9.12V36H10.5521V12.48L13.9121 9.12H34.0721L37.4321 12.48V15.84H17.2721V22.56H37.4321V36H44.1521V9.12L37.4321 2.4Z" fill="#0F0F0F"/>
<path class="letter-a" d="M37.4321 2.4L38.1392 1.69289L37.8463 1.4H37.4321V2.4ZM10.5521 2.4V1.4H10.1379L9.84502 1.69289L10.5521 2.4ZM3.83213 9.12L3.12502 8.41289L2.83213 8.70579V9.12H3.83213ZM3.83213 36H2.83213V37H3.83213V36ZM10.5521 36V37H11.5521V36H10.5521ZM10.5521 12.48L9.84502 11.7729L9.55213 12.0658V12.48H10.5521ZM13.9121 9.12V8.12H13.4979L13.205 8.41289L13.9121 9.12ZM34.0721 9.12L34.7792 8.41289L34.4863 8.12H34.0721V9.12ZM37.4321 12.48H38.4321V12.0658L38.1392 11.7729L37.4321 12.48ZM37.4321 15.84V16.84H38.4321V15.84H37.4321ZM17.2721 15.84V14.84H16.2721V15.84H17.2721ZM17.2721 22.56H16.2721V23.56H17.2721V22.56ZM37.4321 22.56H38.4321V21.56H37.4321V22.56ZM37.4321 36H36.4321V37H37.4321V36ZM44.1521 36V37H45.1521V36H44.1521ZM44.1521 9.12H45.1521V8.70579L44.8592 8.41289L44.1521 9.12ZM37.4321 1.4H10.5521V3.4H37.4321V1.4ZM9.84502 1.69289L3.12502 8.41289L4.53923 9.82711L11.2592 3.1071L9.84502 1.69289ZM2.83213 9.12V36H4.83213V9.12H2.83213ZM3.83213 37H10.5521V35H3.83213V37ZM11.5521 36V12.48H9.55213V36H11.5521ZM11.2592 13.1871L14.6192 9.82711L13.205 8.41289L9.84502 11.7729L11.2592 13.1871ZM13.9121 10.12H34.0721V8.12H13.9121V10.12ZM33.365 9.82711L36.725 13.1871L38.1392 11.7729L34.7792 8.41289L33.365 9.82711ZM36.4321 12.48V15.84H38.4321V12.48H36.4321ZM37.4321 14.84H17.2721V16.84H37.4321V14.84ZM16.2721 15.84V22.56H18.2721V15.84H16.2721ZM17.2721 23.56H37.4321V21.56H17.2721V23.56ZM36.4321 22.56V36H38.4321V22.56H36.4321ZM37.4321 37H44.1521V35H37.4321V37ZM45.1521 36V9.12H43.1521V36H45.1521ZM44.8592 8.41289L38.1392 1.69289L36.725 3.1071L43.445 9.82711L44.8592 8.41289Z" fill="#0F0F0F"/>

<rect width="48" height="46" fill="white" class="pronter"/>
</svg>
