<svg width="248" height="138" viewBox="0 0 248 138" fill="none" xmlns="http://www.w3.org/2000/svg">
<path d="M42.6176 4.17963L207 4.17982L244.078 68.401L207 132.623H42.6176L5.53918 68.401L42.6176 4.17963Z" fill="url(#paint0_linear_129_38)"/>
<path d="M14.813 68.012L48.9592 12.5197L201.055 12.5199L235.187 67.988L201.041 123.48H48.9449L14.813 68.012Z" stroke="white"/>
<path d="M136.826 116.785H195.843L225.351 68.831L195.843 20.8766" stroke="#7BD7BB"/>
<path d="M112.63 20.4893H53.6137L24.1056 68.444L53.6137 116.398" stroke="#7BD7BB"/>
<path d="M77.0373 59.08V54.6H50.1573V59.08H77.0373ZM54.6373 68.04H72.5574V63.56H50.1573V77H77.0373V72.52H54.6373V68.04ZM98.521 61.32H80.6008V77H85.0809V65.8H96.2809L98.521 68.04V77H103.001V65.8L98.521 61.32ZM111.448 61.32L106.968 65.8V77H120.376V72.52H111.448V68.04L113.688 65.8H124.888V81.032H129.368V61.32H111.448ZM133.976 56.84V77H138.456V56.84H133.976ZM147.55 77V61.32H143.07V77H147.55ZM147.55 59.08V56.84H143.07V59.08H147.55ZM174.243 65.8V61.32H156.323L151.843 65.8V71.4H168.643L167.523 72.52H151.843V77H169.763L174.243 72.52V66.92H157.443L158.563 65.8H174.243ZM196.427 61.32H182.987V56.84H178.507V77H182.987V65.896H194.187L196.427 68.136V77H200.907V65.8L196.427 61.32Z" fill="white"/>
<path d="M115.393 4.17078L40.3945 3.24377L3.69775 68.658L42.0001 135" stroke="#7BD7BB" stroke-width="5"/>
<path d="M129.822 135.111L205.68 133.833L244.715 68.777L207.893 5" stroke="#7BD7BB" stroke-width="5"/>
<defs>
<linearGradient id="paint0_linear_129_38" x1="45" y1="130" x2="224.5" y2="37" gradientUnits="userSpaceOnUse">
<stop stop-color="#81F5D2"/>
<stop offset="0.9999" stop-color="#81F5D2" stop-opacity="0.337552"/>
<stop offset="1" stop-color="#81F5D2" stop-opacity="0.21"/>
</linearGradient>
</defs>
</svg>
