<svg id="lang-spanish" width="248" height="138" viewBox="0 0 248 138" fill="none" xmlns="http://www.w3.org/2000/svg">
<defs>
<linearGradient id="paint0_linear_130_40" x1="45" y1="130" x2="224.5" y2="37" gradientUnits="userSpaceOnUse">
<stop stop-color="#8A8A8A"/>
<stop offset="1" stop-color="#8A8A8A" stop-opacity="0.21"/>
</linearGradient>

    <style>
        #lang-spanish:hover .letters {
            fill: aquamarine;
        }

        #lang-spanish:hover .spn-stroke {
            stroke: aquamarine;
        }

    </style>
</defs>


<path d="M42.6176 4.17957L207 4.17976L244.078 68.401L207 132.623H42.6176L5.53918 68.401L42.6176 4.17957Z" fill="url(#paint0_linear_130_40)"/>
<path class="spn-stroke" d="M14.813 68.0119L48.9592 12.5197L201.055 12.5199L235.187 67.988L201.041 123.48H48.9449L14.813 68.0119Z" stroke="white"/>
<path d="M136.826 116.785H195.843L225.351 68.831L195.843 20.8766" stroke="#7D7D7D"/>
<path d="M112.63 20.4893H53.6137L24.1056 68.444L53.6137 116.398" stroke="#7D7D7D"/>
<path d="M115.393 4.17078L40.3945 3.24377L3.69775 68.658L42.0001 135" stroke="#7D7D7D" stroke-width="5"/>
<path d="M129.822 135.111L205.68 133.833L244.715 68.777L207.893 5" stroke="#7D7D7D" stroke-width="5"/>

<path class="letters" d="M67.3968 61.08V56.6H40.5168V61.08H67.3968ZM44.9968 70.04H62.9168V65.56H40.5168V79H67.3968V74.52H44.9968V70.04ZM93.0403 67.8V63.32H75.1203L70.6403 67.8V73.4H87.4403L86.3203 74.52H70.6403V79H88.5603L93.0403 74.52V68.92H76.2403L77.3603 67.8H93.0403ZM97.304 63.32V83.48H101.784V79H115.224L119.704 74.52V63.32H97.304ZM115.224 72.216L112.984 74.456H101.784V67.8H115.224V72.216ZM128.152 63.32L123.672 67.8V79H139.352L141.592 76.76V79H146.072V63.32H128.152ZM141.592 70.04L137.112 74.52H128.152V70.136L130.392 67.896H141.592V70.04ZM168.599 63.32H150.679V79H155.159V67.8H166.359L168.599 70.04V79H173.079V67.8L168.599 63.32ZM194.967 63.32H177.047V74.52L181.527 79H199.447V67.8L194.967 63.32ZM194.967 74.52H183.767L181.527 72.28V67.8H192.727L194.967 70.04V74.52ZM203.742 58.84V79H208.222V58.84H203.742Z" fill="white"/>
</svg>
