<svg width="280" height="271" viewBox="0 0 280 271" fill="none" xmlns="http://www.w3.org/2000/svg">
<path d="M58.6176 71.1796L223 71.1798L260.078 135.401L223 199.623L58.6176 199.623L21.5392 135.401L58.6176 71.1796Z" fill="url(#paint0_linear_127_4)"/>
<path d="M30.813 135.012L64.9592 79.5197L217.055 79.5199L251.187 134.988L217.041 190.48L64.9449 190.48L30.813 135.012Z" stroke="white"/>
<path d="M152.826 183.785L211.843 183.785L241.351 135.831L211.843 87.8766" stroke="#7BD7BB"/>
<path d="M128.63 87.4893L69.6137 87.4893L40.1056 135.444L69.6137 183.398" stroke="#7BD7BB"/>
<path d="M93.0374 126.08V121.6H66.1574V126.08H93.0374ZM70.6374 135.04H88.5574V130.56H66.1574V144H93.0374V139.52H70.6374V135.04ZM114.521 128.32H96.6009V144H101.081V132.8H112.281L114.521 135.04V144H119.001V132.8L114.521 128.32ZM127.448 128.32L122.968 132.8V144H136.376V139.52H127.448V135.04L129.688 132.8H140.888V148.032H145.368V128.32H127.448ZM149.976 123.84V144H154.456V123.84H149.976ZM163.55 144V128.32H159.07V144H163.55ZM163.55 126.08V123.84H159.07V126.08H163.55ZM190.243 132.8V128.32H172.323L167.843 132.8V138.4H184.643L183.523 139.52H167.843V144H185.763L190.243 139.52V133.92H173.443L174.563 132.8H190.243ZM212.427 128.32H198.987V123.84H194.507V144H198.987V132.896H210.187L212.427 135.136V144H216.907V132.8L212.427 128.32Z" fill="white"/>
<path d="M131.393 71.1708L56.3944 70.2438L19.6977 135.658L58 202" stroke="#7BD7BB" stroke-width="5"/>
<path d="M145.822 202.111L221.68 200.833L260.715 135.777L223.893 72" stroke="#7BD7BB" stroke-width="5"/>
<defs>
<linearGradient id="paint0_linear_127_4" x1="61" y1="197" x2="240.5" y2="104" gradientUnits="userSpaceOnUse">
<stop stop-color="#81F5D2"/>
<stop offset="0.9999" stop-color="#81F5D2" stop-opacity="0.337552"/>
<stop offset="1" stop-color="#81F5D2" stop-opacity="0.21"/>
</linearGradient>
</defs>
</svg>
