<svg width="62" height="60" viewBox="0 0 62 60" fill="none" xmlns="http://www.w3.org/2000/svg">
<path d="M3.6 36.176V18.704C3.6 13.488 6.208 10.88 11.424 10.88H22.416C27.632 10.88 30.24 13.488 30.24 18.704V36.176C30.24 41.392 27.632 44 22.416 44H11.424C6.208 44 3.6 41.392 3.6 36.176ZM9.456 36.608C9.456 37.984 10.16 38.672 11.568 38.672H22.272C23.68 38.672 24.384 37.984 24.384 36.608V18.272C24.384 16.896 23.68 16.208 22.272 16.208H11.568C10.16 16.208 9.456 16.896 9.456 18.272V36.608Z" fill="white"/>
<path d="M37.408 35.648V8.48H43.024V36.224C43.024 38.304 44.08 39.424 46.192 39.584V44.432C40.336 44.432 37.408 41.504 37.408 35.648Z" fill="white"/>
<path d="M52.456 14.432V8.72H58.36V14.432H52.456ZM52.6 44V18.8H58.216V44H52.6Z" fill="white"/>
</svg>
