<svg width="1200" height="350" viewBox="0 0 1200 350" fill="none" xmlns="http://www.w3.org/2000/svg">
<defs>
    <style>
        
    </style>
</defs>

<!-- Gihub -->
    <rect width="64" height="64" fill="#0F0F0F" x="635" y="210" z="-1"/>
    <path id="te" class="social-media-icon" d="M657.055 256.684C657.055 256.877 656.832 257.032 656.552 257.032C656.232 257.061 656.01 256.906 656.01 256.684C656.01 256.49 656.232 256.335 656.513 256.335C656.803 256.306 657.055 256.461 657.055 256.684ZM654.045 256.248C653.977 256.442 654.171 256.665 654.461 256.723C654.713 256.819 655.003 256.723 655.061 256.529C655.119 256.335 654.935 256.113 654.645 256.026C654.394 255.958 654.113 256.055 654.045 256.248ZM658.323 256.084C658.042 256.152 657.848 256.335 657.877 256.558C657.906 256.752 658.158 256.877 658.448 256.81C658.729 256.742 658.923 256.558 658.894 256.365C658.865 256.181 658.603 256.055 658.323 256.084ZM664.69 219C651.268 219 641 229.19 641 242.613C641 253.345 647.755 262.529 657.403 265.761C658.642 265.984 659.077 265.219 659.077 264.59C659.077 263.99 659.048 260.681 659.048 258.648C659.048 258.648 652.274 260.1 650.852 255.765C650.852 255.765 649.748 252.948 648.161 252.223C648.161 252.223 645.945 250.703 648.316 250.732C648.316 250.732 650.726 250.926 652.052 253.229C654.171 256.965 657.723 255.89 659.106 255.252C659.329 253.703 659.958 252.629 660.655 251.99C655.245 251.39 649.787 250.606 649.787 241.297C649.787 238.635 650.523 237.3 652.071 235.597C651.819 234.968 650.997 232.374 652.323 229.026C654.345 228.397 659 231.639 659 231.639C660.935 231.097 663.016 230.816 665.077 230.816C667.139 230.816 669.219 231.097 671.155 231.639C671.155 231.639 675.81 228.387 677.832 229.026C679.158 232.384 678.335 234.968 678.084 235.597C679.632 237.31 680.581 238.645 680.581 241.297C680.581 250.635 674.881 251.381 669.471 251.99C670.361 252.755 671.116 254.206 671.116 256.481C671.116 259.742 671.087 263.777 671.087 264.571C671.087 265.2 671.532 265.965 672.761 265.742C682.439 262.529 689 253.345 689 242.613C689 229.19 678.113 219 664.69 219ZM650.406 252.377C650.281 252.474 650.31 252.697 650.474 252.881C650.629 253.035 650.852 253.103 650.977 252.977C651.103 252.881 651.074 252.658 650.91 252.474C650.755 252.319 650.532 252.252 650.406 252.377ZM649.361 251.594C649.294 251.719 649.39 251.874 649.584 251.971C649.739 252.068 649.932 252.039 650 251.903C650.068 251.777 649.971 251.623 649.777 251.526C649.584 251.468 649.429 251.497 649.361 251.594ZM652.497 255.039C652.342 255.165 652.4 255.455 652.623 255.639C652.845 255.861 653.126 255.89 653.252 255.735C653.377 255.61 653.319 255.319 653.126 255.135C652.913 254.913 652.623 254.884 652.497 255.039ZM651.394 253.616C651.239 253.713 651.239 253.965 651.394 254.187C651.548 254.41 651.81 254.506 651.935 254.41C652.09 254.284 652.09 254.032 651.935 253.81C651.8 253.587 651.548 253.49 651.394 253.616Z" fill="white"/>  
</svg>
