<svg width="292" height="37" viewBox="0 0 292 37" fill="none" xmlns="http://www.w3.org/2000/svg">
<path d="M0.84 28.656V10.224C0.84 5.328 3.288 2.88 8.184 2.88H19.416C24.312 2.88 26.76 5.328 26.76 10.224V28.656C26.76 33.552 24.312 36 19.416 36H8.184C3.288 36 0.84 33.552 0.84 28.656ZM4.872 29.088C4.872 31.264 5.96 32.352 8.136 32.352H19.464C21.64 32.352 22.728 31.264 22.728 29.088V9.792C22.728 7.616 21.64 6.528 19.464 6.528H8.136C5.96 6.528 4.872 7.616 4.872 9.792V29.088ZM34.2574 29.184V0.48H38.0974V29.568C38.0974 31.776 39.2174 32.944 41.4574 33.072V36.384C36.6574 36.384 34.2574 33.984 34.2574 29.184ZM46.7261 6.384V1.872H50.9501V6.384H46.7261ZM46.9181 36V11.04H50.7581V36H46.9181ZM55.5694 11.712L56.0014 11.04H59.3134L66.6094 32.64H67.5694L74.8654 11.04H78.1774L78.6094 11.712L70.2094 36H63.9694L55.5694 11.712ZM83.0029 28.8V18.24C83.0029 13.44 85.4029 11.04 90.2029 11.04H96.4429C101.243 11.04 103.643 13.44 103.643 18.24V25.008H86.8429V29.28C86.8429 31.52 87.9629 32.64 90.2029 32.64H102.683V34.56L100.763 36H90.2029C85.4029 36 83.0029 33.6 83.0029 28.8ZM86.8429 21.888H99.8029V17.76C99.8029 15.52 98.6829 14.4 96.4429 14.4H90.2029C87.9629 14.4 86.8429 15.52 86.8429 17.76V21.888ZM110.757 36V13.92C111.877 12 113.957 11.04 116.997 11.04H121.797L123.717 12.48V14.4H117.525C116.181 14.4 115.205 14.768 114.597 15.504V36H110.757ZM140.82 36V2.88H156.036C160.932 2.88 163.38 5.328 163.38 10.224V13.536C163.38 14.624 163.06 15.552 162.42 16.32L160.74 18.336L162.756 20.016C163.812 20.88 164.34 22.16 164.34 23.856V28.656C164.34 33.552 161.892 36 156.996 36H140.82ZM144.852 32.352H157.044C159.22 32.352 160.308 31.264 160.308 29.088V23.712C160.308 21.536 159.22 20.448 157.044 20.448H144.852V32.352ZM144.852 16.8H156.084C158.26 16.8 159.348 15.712 159.348 13.536V9.792C159.348 7.616 158.26 6.528 156.084 6.528H144.852V16.8ZM170.847 28.8V18.24C170.847 13.44 173.247 11.04 178.047 11.04H184.767C189.567 11.04 191.967 13.44 191.967 18.24V28.8C191.967 33.6 189.567 36 184.767 36H178.047C173.247 36 170.847 33.6 170.847 28.8ZM174.687 29.28C174.687 31.52 175.807 32.64 178.047 32.64H184.767C187.007 32.64 188.127 31.52 188.127 29.28V17.76C188.127 15.52 187.007 14.4 184.767 14.4H178.047C175.807 14.4 174.687 15.52 174.687 17.76V29.28ZM199.07 28.8V2.88H202.91V11.04H212.03V14.4H202.91V29.28C202.91 31.52 204.03 32.64 206.27 32.64H212.51V34.56L210.59 36H206.27C201.47 36 199.07 33.6 199.07 28.8ZM217.675 28.8V18.24C217.675 13.44 220.075 11.04 224.875 11.04H231.115C235.915 11.04 238.315 13.44 238.315 18.24V25.008H221.515V29.28C221.515 31.52 222.635 32.64 224.875 32.64H237.355V34.56L235.435 36H224.875C220.075 36 217.675 33.6 217.675 28.8ZM221.515 21.888H234.475V17.76C234.475 15.52 233.355 14.4 231.115 14.4H224.875C222.635 14.4 221.515 15.52 221.515 17.76V21.888ZM245.429 29.184V0.48H249.269V29.568C249.269 31.776 250.389 32.944 252.629 33.072V36.384C247.829 36.384 245.429 33.984 245.429 29.184ZM257.898 29.184V0.48H261.738V29.568C261.738 31.776 262.858 32.944 265.098 33.072V36.384C260.298 36.384 257.898 33.984 257.898 29.184ZM270.175 28.8V18.24C270.175 13.44 272.575 11.04 277.375 11.04H284.095C288.895 11.04 291.295 13.44 291.295 18.24V28.8C291.295 33.6 288.895 36 284.095 36H277.375C272.575 36 270.175 33.6 270.175 28.8ZM274.015 29.28C274.015 31.52 275.135 32.64 277.375 32.64H284.095C286.335 32.64 287.455 31.52 287.455 29.28V17.76C287.455 15.52 286.335 14.4 284.095 14.4H277.375C275.135 14.4 274.015 15.52 274.015 17.76V29.28Z" fill="white"/>
</svg>
