<svg width="878" height="91" viewBox="0 0 878 91" fill="none" xmlns="http://www.w3.org/2000/svg">
<path d="M89.944 0.399994H0.344001V72.08L18.264 90H107.864V18.32L89.944 0.399994ZM89.944 72.08H27.224L18.264 63.12V18.32H80.984L89.944 27.28V72.08ZM126.466 9.35999V90H144.386V9.35999H126.466ZM180.761 90V27.28H162.841V90H180.761ZM180.761 18.32V9.35999H162.841V18.32H180.761ZM268.464 27.28V54.16L250.544 72.08H232.624L214.704 54.16V27.28H196.784V63.12L223.664 90H259.504L286.384 63.12V27.28H268.464ZM318.981 63.12V45.2H363.781L350.725 58.256L364.165 71.696L390.661 45.2L372.741 27.28H301.061V72.08L318.981 90H390.661V72.08H327.941L318.981 63.12ZM432.971 27.28L424.011 36.24V27.28H406.091V90H424.011V63.12L441.931 45.2H495.691V27.28H432.971ZM639.655 0.527992V45.2H585.895V0.399994H567.975V63.12H585.895V63.248H639.655V90.128H657.575V0.527992H639.655ZM678.115 0.783997V90.384H767.715V0.783997H678.115ZM749.795 72.464H696.035V18.704H749.795V72.464ZM859.28 0.527992V45.2H805.52V0.399994H787.6V63.12H805.52V63.248H859.28V90.128H877.2V0.527992H859.28Z" fill="white"/>
</svg>
