<svg id="title" width="1200" height="350" viewBox="0 0 1200 350" fill="none" xmlns="http://www.w3.org/2000/svg">
<defs>
    <style>
        @keyframes paths {
            0% {
                clip-path: polygon(
                    0% 43%,
                    83% 43%,
                    83% 22%,
                    23% 22%,
                    23% 24%,
                    91% 24%,
                    91% 26%,
                    18% 26%,
                    18% 83%,
                    29% 83%,
                    29% 17%,
                    41% 17%,
                    41% 39%,
                    18% 39%,
                    18% 82%,
                    54% 82%,
                    54% 88%,
                    19% 88%,
                    19% 4%,
                    39% 4%,
                    39% 14%,
                    76% 14%,
                    76% 52%,
                    23% 52%,
                    23% 35%,
                    19% 35%,
                    19% 8%,
                    36% 8%,
                    36% 31%,
                    73% 31%,
                    73% 16%,
                    1% 16%,
                    1% 56%,
                    50% 56%,
                    50% 8%
                );
            }

            5% {
                clip-path: polygon(
                    0% 29%,
                    44% 29%,
                    44% 83%,
                    94% 83%,
                    94% 56%,
                    11% 56%,
                    11% 64%,
                    94% 64%,
                    94% 70%,
                    88% 70%,
                    88% 32%,
                    18% 32%,
                    18% 96%,
                    10% 96%,
                    10% 62%,
                    9% 62%,
                    9% 84%,
                    68% 84%,
                    68% 50%,
                    52% 50%,
                    52% 55%,
                    35% 55%,
                    35% 87%,
                    25% 87%,
                    25% 39%,
                    15% 39%,
                    15% 88%,
                    52% 88%
                );
            }

            30% {
                clip-path: polygon(
                    0% 53%,
                    93% 53%,
                    93% 62%,
                    68% 62%,
                    68% 37%,
                    97% 37%,
                    97% 89%,
                    13% 89%,
                    13% 45%,
                    51% 45%,
                    51% 88%,
                    17% 88%,
                    17% 54%,
                    81% 54%,
                    81% 75%,
                    79% 75%,
                    79% 76%,
                    38% 76%,
                    38% 28%,
                    61% 28%,
                    61% 12%,
                    55% 12%,
                    55% 62%,
                    68% 62%,
                    68% 51%,
                    0% 51%,
                    0% 92%,
                    63% 92%,
                    63% 4%,
                    65% 4%
                );
            }

            45% {
                clip-path: polygon(
                    0% 33%,
                    2% 33%,
                    2% 69%,
                    58% 69%,
                    58% 94%,
                    55% 94%,
                    55% 25%,
                    33% 25%,
                    33% 85%,
                    16% 85%,
                    16% 19%,
                    5% 19%,
                    5% 20%,
                    79% 20%,
                    79% 96%,
                    93% 96%,
                    93% 50%,
                    5% 50%,
                    5% 74%,
                    55% 74%,
                    55% 57%,
                    96% 57%,
                    96% 59%,
                    87% 59%,
                    87% 65%,
                    82% 65%,
                    82% 39%,
                    63% 39%,
                    63% 92%,
                    4% 92%,
                    4% 36%,
                    24% 36%,
                    24% 70%,
                    1% 70%,
                    1% 43%,
                    15% 43%,
                    15% 28%,
                    23% 28%,
                    23% 71%,
                    90% 71%,
                    90% 86%,
                    97% 86%,
                    97% 1%,
                    60% 1%,
                    60% 67%,
                    71% 67%,
                    71% 91%,
                    17% 91%,
                    17% 14%,
                    39% 14%,
                    39% 30%,
                    58% 30%,
                    58% 11%,
                    52% 11%,
                    52% 83%,
                    68% 83%
                );
            }

            76% {
                clip-path: polygon(
                    0% 26%,
                    15% 26%,
                    15% 73%,
                    72% 73%,
                    72% 70%,
                    77% 70%,
                    77% 75%,
                    8% 75%,
                    8% 42%,
                    4% 42%,
                    4% 61%,
                    17% 61%,
                    17% 12%,
                    26% 12%,
                    26% 63%,
                    73% 63%,
                    73% 43%,
                    90% 43%,
                    90% 67%,
                    50% 67%,
                    50% 41%,
                    42% 41%,
                    42% 46%,
                    50% 46%,
                    50% 84%,
                    96% 84%,
                    96% 78%,
                    49% 78%,
                    49% 25%,
                    63% 25%,
                    63% 14%
                );
            }

            90% {
                clip-path: polygon(
                    0% 41%,
                    13% 41%,
                    13% 6%,
                    87% 6%,
                    87% 93%,
                    10% 93%,
                    10% 13%,
                    89% 13%,
                    89% 6%,
                    3% 6%,
                    3% 8%,
                    16% 8%,
                    16% 79%,
                    0% 79%,
                    0% 99%,
                    92% 99%,
                    92% 90%,
                    5% 90%,
                    5% 60%,
                    0% 60%,
                    0% 48%,
                    89% 48%,
                    89% 13%,
                    80% 13%,
                    80% 43%,
                    95% 43%,
                    95% 19%,
                    80% 19%,
                    80% 85%,
                    38% 85%,
                    38% 62%
                );
            }

            1%,
            7%,
            33%,
            47%,
            78%,
            93% {
                clip-path: none;
            }
        }

        @keyframes paths1 {
            0% {
                clip-path: polygon(0% 34%,80% 34%,80% 97%,73% 97%,73% 29%,61% 29%,61% 46%,55% 46%,55% 20%,15% 20%,15% 8%,48% 8%,48% 33%,16% 33%,16% 68%,40% 68%,40% 32%,32% 32%,32% 38%,99% 38%,99% 40%,56% 40%,56% 53%,49% 53%,49% 43%);
            }

            5% {
                clip-path: polygon(0% 39%,83% 39%,83% 81%,2% 81%,2% 54%,36% 54%,36% 58%,39% 58%,39% 89%,85% 89%,85% 86%,80% 86%,80% 87%,37% 87%,37% 63%,58% 63%,58% 51%,68% 51%,68% 73%,97% 73%,97% 44%,87% 44%,87% 19%,78% 19%,78% 59%,41% 59%,41% 63%,59% 63%,59% 80%,90% 80%,90% 88%,39% 88%,39% 86%,92% 86%,92% 46%,91% 46%);
            }

            30% {
                clip-path: polygon(0% 50%,43% 50%,43% 93%,24% 93%,24% 92%,46% 92%,46% 38%,86% 38%,86% 62%,73% 62%,73% 12%,97% 12%,97% 50%,84% 50%,84% 35%,76% 35%,76% 41%,44% 41%,44% 60%,81% 60%,81% 8%,89% 8%,89% 12%);
            }

            45% {
                clip-path: polygon(0% 39%,7% 39%,7% 2%,26% 2%,26% 55%,36% 55%,36% 44%,79% 44%,79% 20%,22% 20%,22% 41%,61% 41%,61% 65%,58% 65%,58% 22%,25% 22%,25% 84%,45% 84%,45% 34%,69% 34%,69% 21%,84% 21%,84% 18%,5% 18%,5% 44%,64% 44%,64% 93%,56% 93%,56% 58%,29% 58%,29% 7%,33% 7%,33% 36%,88% 36%,88% 59%,35% 59%,35% 45%,19% 45%,19% 10%,92% 10%);
            }

            76% {
                clip-path: polygon(0% 1%,42% 1%,42% 78%,14% 78%,14% 64%,43% 64%,43% 39%,56% 39%,56% 29%,10% 29%,10% 60%,81% 60%,81% 25%,30% 25%,30% 74%,43% 74%,43% 9%,58% 9%,58% 64%,56% 64%,56% 99%,8% 99%,8% 78%,45% 78%,45% 15%,52% 15%);
            }

            90% {
                clip-path: polygon(0% 35%,3% 35%,3% 18%,92% 18%,92% 82%,85% 82%,85% 44%,28% 44%,28% 78%,36% 78%,36% 72%,18% 72%,18% 52%,10% 52%,10% 36%,85% 36%,85% 85%,31% 85%,31% 58%,87% 58%,87% 5%,21% 5%,21% 91%,13% 91%,13% 78%,79% 78%,79% 44%,87% 44%,87% 36%,1% 36%,1% 72%,62% 72%,62% 97%,87% 97%);
            }

            1%,
            7%,
            33%,
            47%,
            78%,
            93% {
                clip-path: none;
            }
        }

        @keyframes glitch-break {
            0% {
                transform: translate(0.125em, 0.25em);
            }
            
            15% {
                transform: translate(-0.125em, 0.25em);
            }
            
            50% {
                transform: translate(0.125em, -0.25em);
            }
            
            100% {
                transform: translate(-0.125em, -0.25em);
            }
        }

         @keyframes movement {
            0% {
                transform: translate(0.125em, 0.25em);
            }
            
            15% {
                transform: translate(-0.125em, 0.25em);
            }
            
            50% {
                transform: translate(0.125em, -0.25em);
            }
            
            100% {
                transform: translate(-0.125em, -0.25em);
            }
        }

        @keyframes filter {
            0% {
                filter: blur(3px);
            }

            20% {
                filter: blur(0);
            }

            50% {
                filter: blur(2px);
            }

            60% {
                filter: blur(0);
            }

            90% {
                filter: blur(6px);
            }
        }

        @keyframes glitch-break-white {
            0% {
                transform: translate(0.125em, 0.25em);
            }
            
            15% {
                transform: translate(-0.125em, 0.25em);
            }
            
            50% {
                transform: translate(0.125em, -0.25em);
            }
            
            100% {
                transform: translate(-0.125em, -0.25em);
            }
        }

        #title .username {
            animation: paths 5s step-end infinite, movement 4s step-end infinite, filter 7s step-end infinite;
            position: relative;
            color: white;
        }

        #title .shadow-white {
            color: white;
            animation: paths1 5s step-start infinite, glitch-break-white 4s step-start infinite;
        }

        #title .shadow-magenta {
            animation: glitch-break 650ms step-end infinite, paths1 4s step-end infinite;
            opacity: 0.8;
        }
        #title .shadow-blue {
            animation: glitch-break 375ms step-end infinite, paths1 4s step-end infinite;
            opacity: 0.8;
        }

        #title a:hover > .social-media-icon {
            fill: aquamarine;
        }
    </style>
</defs>
<!-- bakcground -->
<path d="M0.00012207 87.5L75.0001 0L600 0L1200 0V175V262.5L1125 350H600H0.00012207L0.00012207 87.5Z" fill="#0F0F0F"/>

<!-- Oliver 404 -->
<path d="M249.944 84.4H160.344V156.08L178.264 174H267.864V102.32L249.944 84.4ZM249.944 156.08H187.224L178.264 147.12V102.32H240.984L249.944 111.28V156.08ZM286.466 93.36V174H304.386V93.36H286.466ZM340.761 174V111.28H322.841V174H340.761ZM340.761 102.32V93.36H322.841V102.32H340.761ZM428.464 111.28V138.16L410.544 156.08H392.624L374.704 138.16V111.28H356.784V147.12L383.664 174H419.504L446.384 147.12V111.28H428.464ZM478.981 147.12V129.2H523.781L510.725 142.256L524.165 155.696L550.661 129.2L532.741 111.28H461.061V156.08L478.981 174H550.661V156.08H487.941L478.981 147.12ZM592.971 111.28L584.011 120.24V111.28H566.091V174H584.011V147.12L601.931 129.2H655.691V111.28H592.971ZM799.655 84.528V129.2H745.895V84.4H727.975V147.12H745.895V147.248H799.655V174.128H817.575V84.528H799.655ZM838.115 84.784V174.384H927.715V84.784H838.115ZM909.795 156.464H856.035V102.704H909.795V156.464ZM1019.28 84.528V129.2H965.52V84.4H947.6V147.12H965.52V147.248H1019.28V174.128H1037.2V84.528H1019.28Z" fill="#e0287d" class="shadow-magenta"/>
<path d="M249.944 84.4H160.344V156.08L178.264 174H267.864V102.32L249.944 84.4ZM249.944 156.08H187.224L178.264 147.12V102.32H240.984L249.944 111.28V156.08ZM286.466 93.36V174H304.386V93.36H286.466ZM340.761 174V111.28H322.841V174H340.761ZM340.761 102.32V93.36H322.841V102.32H340.761ZM428.464 111.28V138.16L410.544 156.08H392.624L374.704 138.16V111.28H356.784V147.12L383.664 174H419.504L446.384 147.12V111.28H428.464ZM478.981 147.12V129.2H523.781L510.725 142.256L524.165 155.696L550.661 129.2L532.741 111.28H461.061V156.08L478.981 174H550.661V156.08H487.941L478.981 147.12ZM592.971 111.28L584.011 120.24V111.28H566.091V174H584.011V147.12L601.931 129.2H655.691V111.28H592.971ZM799.655 84.528V129.2H745.895V84.4H727.975V147.12H745.895V147.248H799.655V174.128H817.575V84.528H799.655ZM838.115 84.784V174.384H927.715V84.784H838.115ZM909.795 156.464H856.035V102.704H909.795V156.464ZM1019.28 84.528V129.2H965.52V84.4H947.6V147.12H965.52V147.248H1019.28V174.128H1037.2V84.528H1019.28Z" fill="#1bc7fb" class="shadow-blue"/>
<path d="M249.944 84.4H160.344V156.08L178.264 174H267.864V102.32L249.944 84.4ZM249.944 156.08H187.224L178.264 147.12V102.32H240.984L249.944 111.28V156.08ZM286.466 93.36V174H304.386V93.36H286.466ZM340.761 174V111.28H322.841V174H340.761ZM340.761 102.32V93.36H322.841V102.32H340.761ZM428.464 111.28V138.16L410.544 156.08H392.624L374.704 138.16V111.28H356.784V147.12L383.664 174H419.504L446.384 147.12V111.28H428.464ZM478.981 147.12V129.2H523.781L510.725 142.256L524.165 155.696L550.661 129.2L532.741 111.28H461.061V156.08L478.981 174H550.661V156.08H487.941L478.981 147.12ZM592.971 111.28L584.011 120.24V111.28H566.091V174H584.011V147.12L601.931 129.2H655.691V111.28H592.971ZM799.655 84.528V129.2H745.895V84.4H727.975V147.12H745.895V147.248H799.655V174.128H817.575V84.528H799.655ZM838.115 84.784V174.384H927.715V84.784H838.115ZM909.795 156.464H856.035V102.704H909.795V156.464ZM1019.28 84.528V129.2H965.52V84.4H947.6V147.12H965.52V147.248H1019.28V174.128H1037.2V84.528H1019.28Z" fill="#F0F0F0" class="shadow-white"/>
<path d="M249.944 84.4H160.344V156.08L178.264 174H267.864V102.32L249.944 84.4ZM249.944 156.08H187.224L178.264 147.12V102.32H240.984L249.944 111.28V156.08ZM286.466 93.36V174H304.386V93.36H286.466ZM340.761 174V111.28H322.841V174H340.761ZM340.761 102.32V93.36H322.841V102.32H340.761ZM428.464 111.28V138.16L410.544 156.08H392.624L374.704 138.16V111.28H356.784V147.12L383.664 174H419.504L446.384 147.12V111.28H428.464ZM478.981 147.12V129.2H523.781L510.725 142.256L524.165 155.696L550.661 129.2L532.741 111.28H461.061V156.08L478.981 174H550.661V156.08H487.941L478.981 147.12ZM592.971 111.28L584.011 120.24V111.28H566.091V174H584.011V147.12L601.931 129.2H655.691V111.28H592.971ZM799.655 84.528V129.2H745.895V84.4H727.975V147.12H745.895V147.248H799.655V174.128H817.575V84.528H799.655ZM838.115 84.784V174.384H927.715V84.784H838.115ZM909.795 156.464H856.035V102.704H909.795V156.464ZM1019.28 84.528V129.2H965.52V84.4H947.6V147.12H965.52V147.248H1019.28V174.128H1037.2V84.528H1019.28Z" fill="#F0F0F0" class="username"/>

<!-- Oliver Botello -->
<path d="M454.84 259.656V241.224C454.84 236.328 457.288 233.88 462.184 233.88H473.416C478.312 233.88 480.76 236.328 480.76 241.224V259.656C480.76 264.552 478.312 267 473.416 267H462.184C457.288 267 454.84 264.552 454.84 259.656ZM458.872 260.088C458.872 262.264 459.96 263.352 462.136 263.352H473.464C475.64 263.352 476.728 262.264 476.728 260.088V240.792C476.728 238.616 475.64 237.528 473.464 237.528H462.136C459.96 237.528 458.872 238.616 458.872 240.792V260.088ZM488.257 260.184V231.48H492.097V260.568C492.097 262.776 493.217 263.944 495.457 264.072V267.384C490.657 267.384 488.257 264.984 488.257 260.184ZM500.726 237.384V232.872H504.95V237.384H500.726ZM500.918 267V242.04H504.758V267H500.918ZM509.569 242.712L510.001 242.04H513.313L520.609 263.64H521.569L528.865 242.04H532.177L532.609 242.712L524.209 267H517.969L509.569 242.712ZM537.003 259.8V249.24C537.003 244.44 539.403 242.04 544.203 242.04H550.443C555.243 242.04 557.643 244.44 557.643 249.24V256.008H540.843V260.28C540.843 262.52 541.963 263.64 544.203 263.64H556.683V265.56L554.763 267H544.203C539.403 267 537.003 264.6 537.003 259.8ZM540.843 252.888H553.803V248.76C553.803 246.52 552.683 245.4 550.443 245.4H544.203C541.963 245.4 540.843 246.52 540.843 248.76V252.888ZM564.757 267V244.92C565.877 243 567.957 242.04 570.997 242.04H575.797L577.717 243.48V245.4H571.525C570.181 245.4 569.205 245.768 568.597 246.504V267H564.757ZM594.82 267V233.88H610.036C614.932 233.88 617.38 236.328 617.38 241.224V244.536C617.38 245.624 617.06 246.552 616.42 247.32L614.74 249.336L616.756 251.016C617.812 251.88 618.34 253.16 618.34 254.856V259.656C618.34 264.552 615.892 267 610.996 267H594.82ZM598.852 263.352H611.044C613.22 263.352 614.308 262.264 614.308 260.088V254.712C614.308 252.536 613.22 251.448 611.044 251.448H598.852V263.352ZM598.852 247.8H610.084C612.26 247.8 613.348 246.712 613.348 244.536V240.792C613.348 238.616 612.26 237.528 610.084 237.528H598.852V247.8ZM624.847 259.8V249.24C624.847 244.44 627.247 242.04 632.047 242.04H638.767C643.567 242.04 645.967 244.44 645.967 249.24V259.8C645.967 264.6 643.567 267 638.767 267H632.047C627.247 267 624.847 264.6 624.847 259.8ZM628.687 260.28C628.687 262.52 629.807 263.64 632.047 263.64H638.767C641.007 263.64 642.127 262.52 642.127 260.28V248.76C642.127 246.52 641.007 245.4 638.767 245.4H632.047C629.807 245.4 628.687 246.52 628.687 248.76V260.28ZM653.07 259.8V233.88H656.91V242.04H666.03V245.4H656.91V260.28C656.91 262.52 658.03 263.64 660.27 263.64H666.51V265.56L664.59 267H660.27C655.47 267 653.07 264.6 653.07 259.8ZM671.675 259.8V249.24C671.675 244.44 674.075 242.04 678.875 242.04H685.115C689.915 242.04 692.315 244.44 692.315 249.24V256.008H675.515V260.28C675.515 262.52 676.635 263.64 678.875 263.64H691.355V265.56L689.435 267H678.875C674.075 267 671.675 264.6 671.675 259.8ZM675.515 252.888H688.475V248.76C688.475 246.52 687.355 245.4 685.115 245.4H678.875C676.635 245.4 675.515 246.52 675.515 248.76V252.888ZM699.429 260.184V231.48H703.269V260.568C703.269 262.776 704.389 263.944 706.629 264.072V267.384C701.829 267.384 699.429 264.984 699.429 260.184ZM711.898 260.184V231.48H715.738V260.568C715.738 262.776 716.858 263.944 719.098 264.072V267.384C714.298 267.384 711.898 264.984 711.898 260.184ZM724.175 259.8V249.24C724.175 244.44 726.575 242.04 731.375 242.04H738.095C742.895 242.04 745.295 244.44 745.295 249.24V259.8C745.295 264.6 742.895 267 738.095 267H731.375C726.575 267 724.175 264.6 724.175 259.8ZM728.015 260.28C728.015 262.52 729.135 263.64 731.375 263.64H738.095C740.335 263.64 741.455 262.52 741.455 260.28V248.76C741.455 246.52 740.335 245.4 738.095 245.4H731.375C729.135 245.4 728.015 246.52 728.015 248.76V260.28Z" fill="white"/>

</svg>
