<svg id="title" width="1200" height="350" viewBox="0 0 1200 350" fill="none" xmlns="http://www.w3.org/2000/svg">
<defs>
    <style>
        @keyframes paths {
            0% {
                clip-path: polygon(
                    0% 43%,
                    83% 43%,
                    83% 22%,
                    23% 22%,
                    23% 24%,
                    91% 24%,
                    91% 26%,
                    18% 26%,
                    18% 83%,
                    29% 83%,
                    29% 17%,
                    41% 17%,
                    41% 39%,
                    18% 39%,
                    18% 82%,
                    54% 82%,
                    54% 88%,
                    19% 88%,
                    19% 4%,
                    39% 4%,
                    39% 14%,
                    76% 14%,
                    76% 52%,
                    23% 52%,
                    23% 35%,
                    19% 35%,
                    19% 8%,
                    36% 8%,
                    36% 31%,
                    73% 31%,
                    73% 16%,
                    1% 16%,
                    1% 56%,
                    50% 56%,
                    50% 8%
                );
            }

            5% {
                clip-path: polygon(
                    0% 29%,
                    44% 29%,
                    44% 83%,
                    94% 83%,
                    94% 56%,
                    11% 56%,
                    11% 64%,
                    94% 64%,
                    94% 70%,
                    88% 70%,
                    88% 32%,
                    18% 32%,
                    18% 96%,
                    10% 96%,
                    10% 62%,
                    9% 62%,
                    9% 84%,
                    68% 84%,
                    68% 50%,
                    52% 50%,
                    52% 55%,
                    35% 55%,
                    35% 87%,
                    25% 87%,
                    25% 39%,
                    15% 39%,
                    15% 88%,
                    52% 88%
                );
            }

            30% {
                clip-path: polygon(
                    0% 53%,
                    93% 53%,
                    93% 62%,
                    68% 62%,
                    68% 37%,
                    97% 37%,
                    97% 89%,
                    13% 89%,
                    13% 45%,
                    51% 45%,
                    51% 88%,
                    17% 88%,
                    17% 54%,
                    81% 54%,
                    81% 75%,
                    79% 75%,
                    79% 76%,
                    38% 76%,
                    38% 28%,
                    61% 28%,
                    61% 12%,
                    55% 12%,
                    55% 62%,
                    68% 62%,
                    68% 51%,
                    0% 51%,
                    0% 92%,
                    63% 92%,
                    63% 4%,
                    65% 4%
                );
            }

            45% {
                clip-path: polygon(
                    0% 33%,
                    2% 33%,
                    2% 69%,
                    58% 69%,
                    58% 94%,
                    55% 94%,
                    55% 25%,
                    33% 25%,
                    33% 85%,
                    16% 85%,
                    16% 19%,
                    5% 19%,
                    5% 20%,
                    79% 20%,
                    79% 96%,
                    93% 96%,
                    93% 50%,
                    5% 50%,
                    5% 74%,
                    55% 74%,
                    55% 57%,
                    96% 57%,
                    96% 59%,
                    87% 59%,
                    87% 65%,
                    82% 65%,
                    82% 39%,
                    63% 39%,
                    63% 92%,
                    4% 92%,
                    4% 36%,
                    24% 36%,
                    24% 70%,
                    1% 70%,
                    1% 43%,
                    15% 43%,
                    15% 28%,
                    23% 28%,
                    23% 71%,
                    90% 71%,
                    90% 86%,
                    97% 86%,
                    97% 1%,
                    60% 1%,
                    60% 67%,
                    71% 67%,
                    71% 91%,
                    17% 91%,
                    17% 14%,
                    39% 14%,
                    39% 30%,
                    58% 30%,
                    58% 11%,
                    52% 11%,
                    52% 83%,
                    68% 83%
                );
            }

            76% {
                clip-path: polygon(
                    0% 26%,
                    15% 26%,
                    15% 73%,
                    72% 73%,
                    72% 70%,
                    77% 70%,
                    77% 75%,
                    8% 75%,
                    8% 42%,
                    4% 42%,
                    4% 61%,
                    17% 61%,
                    17% 12%,
                    26% 12%,
                    26% 63%,
                    73% 63%,
                    73% 43%,
                    90% 43%,
                    90% 67%,
                    50% 67%,
                    50% 41%,
                    42% 41%,
                    42% 46%,
                    50% 46%,
                    50% 84%,
                    96% 84%,
                    96% 78%,
                    49% 78%,
                    49% 25%,
                    63% 25%,
                    63% 14%
                );
            }

            90% {
                clip-path: polygon(
                    0% 41%,
                    13% 41%,
                    13% 6%,
                    87% 6%,
                    87% 93%,
                    10% 93%,
                    10% 13%,
                    89% 13%,
                    89% 6%,
                    3% 6%,
                    3% 8%,
                    16% 8%,
                    16% 79%,
                    0% 79%,
                    0% 99%,
                    92% 99%,
                    92% 90%,
                    5% 90%,
                    5% 60%,
                    0% 60%,
                    0% 48%,
                    89% 48%,
                    89% 13%,
                    80% 13%,
                    80% 43%,
                    95% 43%,
                    95% 19%,
                    80% 19%,
                    80% 85%,
                    38% 85%,
                    38% 62%
                );
            }

            1%,
            7%,
            33%,
            47%,
            78%,
            93% {
                clip-path: none;
            }
        }

        @keyframes paths1 {
            0% {
                clip-path: polygon(0% 34%,80% 34%,80% 97%,73% 97%,73% 29%,61% 29%,61% 46%,55% 46%,55% 20%,15% 20%,15% 8%,48% 8%,48% 33%,16% 33%,16% 68%,40% 68%,40% 32%,32% 32%,32% 38%,99% 38%,99% 40%,56% 40%,56% 53%,49% 53%,49% 43%);
            }

            5% {
                clip-path: polygon(0% 39%,83% 39%,83% 81%,2% 81%,2% 54%,36% 54%,36% 58%,39% 58%,39% 89%,85% 89%,85% 86%,80% 86%,80% 87%,37% 87%,37% 63%,58% 63%,58% 51%,68% 51%,68% 73%,97% 73%,97% 44%,87% 44%,87% 19%,78% 19%,78% 59%,41% 59%,41% 63%,59% 63%,59% 80%,90% 80%,90% 88%,39% 88%,39% 86%,92% 86%,92% 46%,91% 46%);
            }

            30% {
                clip-path: polygon(0% 50%,43% 50%,43% 93%,24% 93%,24% 92%,46% 92%,46% 38%,86% 38%,86% 62%,73% 62%,73% 12%,97% 12%,97% 50%,84% 50%,84% 35%,76% 35%,76% 41%,44% 41%,44% 60%,81% 60%,81% 8%,89% 8%,89% 12%);
            }

            45% {
                clip-path: polygon(0% 39%,7% 39%,7% 2%,26% 2%,26% 55%,36% 55%,36% 44%,79% 44%,79% 20%,22% 20%,22% 41%,61% 41%,61% 65%,58% 65%,58% 22%,25% 22%,25% 84%,45% 84%,45% 34%,69% 34%,69% 21%,84% 21%,84% 18%,5% 18%,5% 44%,64% 44%,64% 93%,56% 93%,56% 58%,29% 58%,29% 7%,33% 7%,33% 36%,88% 36%,88% 59%,35% 59%,35% 45%,19% 45%,19% 10%,92% 10%);
            }

            76% {
                clip-path: polygon(0% 1%,42% 1%,42% 78%,14% 78%,14% 64%,43% 64%,43% 39%,56% 39%,56% 29%,10% 29%,10% 60%,81% 60%,81% 25%,30% 25%,30% 74%,43% 74%,43% 9%,58% 9%,58% 64%,56% 64%,56% 99%,8% 99%,8% 78%,45% 78%,45% 15%,52% 15%);
            }

            90% {
                clip-path: polygon(0% 35%,3% 35%,3% 18%,92% 18%,92% 82%,85% 82%,85% 44%,28% 44%,28% 78%,36% 78%,36% 72%,18% 72%,18% 52%,10% 52%,10% 36%,85% 36%,85% 85%,31% 85%,31% 58%,87% 58%,87% 5%,21% 5%,21% 91%,13% 91%,13% 78%,79% 78%,79% 44%,87% 44%,87% 36%,1% 36%,1% 72%,62% 72%,62% 97%,87% 97%);
            }

            1%,
            7%,
            33%,
            47%,
            78%,
            93% {
                clip-path: none;
            }
        }

        @keyframes glitch-break {
            0% {
                transform: translate(0.125em, 0.25em);
            }
            
            15% {
                transform: translate(-0.125em, 0.25em);
            }
            
            50% {
                transform: translate(0.125em, -0.25em);
            }
            
            100% {
                transform: translate(-0.125em, -0.25em);
            }
        }

         @keyframes movement {
            0% {
                transform: translate(0.125em, 0.25em);
            }
            
            15% {
                transform: translate(-0.125em, 0.25em);
            }
            
            50% {
                transform: translate(0.125em, -0.25em);
            }
            
            100% {
                transform: translate(-0.125em, -0.25em);
            }
        }

        @keyframes filter {
            0% {
                filter: blur(3px);
            }

            20% {
                filter: blur(0);
            }

            50% {
                filter: blur(2px);
            }

            60% {
                filter: blur(0);
            }

            90% {
                filter: blur(6px);
            }
        }

        @keyframes glitch-break-white {
            0% {
                transform: translate(0.125em, 0.25em);
            }
            
            15% {
                transform: translate(-0.125em, 0.25em);
            }
            
            50% {
                transform: translate(0.125em, -0.25em);
            }
            
            100% {
                transform: translate(-0.125em, -0.25em);
            }
        }

        #title .username {
            animation: paths 5s step-end infinite, movement 4s step-end infinite, filter 7s step-end infinite;
            position: relative;
            color: white;
        }

        #title .shadow-white {
            color: white;
            animation: paths1 5s step-start infinite, glitch-break-white 4s step-start infinite;
        }

        #title .shadow-magenta {
            animation: glitch-break 650ms step-end infinite, paths1 4s step-end infinite;
            opacity: 0.8;
        }
        #title .shadow-blue {
            animation: glitch-break 375ms step-end infinite, paths1 4s step-end infinite;
            opacity: 0.8;
        }

        #title .social-media-icon:hover {
            fill: aquamarine;
        }
    </style>
</defs>
<!-- bakcground -->
<path d="M0.00012207 87.5L75.0001 0L600 0L1200 0V175V262.5L1125 350H600H0.00012207L0.00012207 87.5Z" fill="#0F0F0F"/>

<!-- Gihub -->
<a xlink:href="https://en.wikipedia.org/wiki/Bullseye_(target)">
    <path class="social-media-icon" d="M657.055 256.684C657.055 256.877 656.832 257.032 656.552 257.032C656.232 257.061 656.01 256.906 656.01 256.684C656.01 256.49 656.232 256.335 656.513 256.335C656.803 256.306 657.055 256.461 657.055 256.684ZM654.045 256.248C653.977 256.442 654.171 256.665 654.461 256.723C654.713 256.819 655.003 256.723 655.061 256.529C655.119 256.335 654.935 256.113 654.645 256.026C654.394 255.958 654.113 256.055 654.045 256.248ZM658.323 256.084C658.042 256.152 657.848 256.335 657.877 256.558C657.906 256.752 658.158 256.877 658.448 256.81C658.729 256.742 658.923 256.558 658.894 256.365C658.865 256.181 658.603 256.055 658.323 256.084ZM664.69 219C651.268 219 641 229.19 641 242.613C641 253.345 647.755 262.529 657.403 265.761C658.642 265.984 659.077 265.219 659.077 264.59C659.077 263.99 659.048 260.681 659.048 258.648C659.048 258.648 652.274 260.1 650.852 255.765C650.852 255.765 649.748 252.948 648.161 252.223C648.161 252.223 645.945 250.703 648.316 250.732C648.316 250.732 650.726 250.926 652.052 253.229C654.171 256.965 657.723 255.89 659.106 255.252C659.329 253.703 659.958 252.629 660.655 251.99C655.245 251.39 649.787 250.606 649.787 241.297C649.787 238.635 650.523 237.3 652.071 235.597C651.819 234.968 650.997 232.374 652.323 229.026C654.345 228.397 659 231.639 659 231.639C660.935 231.097 663.016 230.816 665.077 230.816C667.139 230.816 669.219 231.097 671.155 231.639C671.155 231.639 675.81 228.387 677.832 229.026C679.158 232.384 678.335 234.968 678.084 235.597C679.632 237.31 680.581 238.645 680.581 241.297C680.581 250.635 674.881 251.381 669.471 251.99C670.361 252.755 671.116 254.206 671.116 256.481C671.116 259.742 671.087 263.777 671.087 264.571C671.087 265.2 671.532 265.965 672.761 265.742C682.439 262.529 689 253.345 689 242.613C689 229.19 678.113 219 664.69 219ZM650.406 252.377C650.281 252.474 650.31 252.697 650.474 252.881C650.629 253.035 650.852 253.103 650.977 252.977C651.103 252.881 651.074 252.658 650.91 252.474C650.755 252.319 650.532 252.252 650.406 252.377ZM649.361 251.594C649.294 251.719 649.39 251.874 649.584 251.971C649.739 252.068 649.932 252.039 650 251.903C650.068 251.777 649.971 251.623 649.777 251.526C649.584 251.468 649.429 251.497 649.361 251.594ZM652.497 255.039C652.342 255.165 652.4 255.455 652.623 255.639C652.845 255.861 653.126 255.89 653.252 255.735C653.377 255.61 653.319 255.319 653.126 255.135C652.913 254.913 652.623 254.884 652.497 255.039ZM651.394 253.616C651.239 253.713 651.239 253.965 651.394 254.187C651.548 254.41 651.81 254.506 651.935 254.41C652.09 254.284 652.09 254.032 651.935 253.81C651.8 253.587 651.548 253.49 651.394 253.616Z" fill="white"/>  
</a>
<!-- Instagram -->
<path d="M742.005 229.691C735.195 229.691 729.702 235.184 729.702 241.995C729.702 248.805 735.195 254.298 742.005 254.298C748.816 254.298 754.309 248.805 754.309 241.995C754.309 235.184 748.816 229.691 742.005 229.691ZM742.005 249.994C737.604 249.994 734.006 246.406 734.006 241.995C734.006 237.583 737.594 233.996 742.005 233.996C746.417 233.996 750.004 237.583 750.004 241.995C750.004 246.406 746.406 249.994 742.005 249.994V249.994ZM757.682 229.188C757.682 230.783 756.397 232.057 754.812 232.057C753.217 232.057 751.943 230.772 751.943 229.188C751.943 227.603 753.228 226.318 754.812 226.318C756.397 226.318 757.682 227.603 757.682 229.188ZM765.831 232.1C765.649 228.256 764.771 224.851 761.955 222.045C759.149 219.239 755.744 218.361 751.9 218.169C747.938 217.944 736.062 217.944 732.1 218.169C728.267 218.351 724.861 219.229 722.045 222.034C719.229 224.84 718.361 228.245 718.169 232.089C717.944 236.052 717.944 247.927 718.169 251.889C718.351 255.733 719.229 259.139 722.045 261.944C724.861 264.75 728.256 265.628 732.1 265.821C736.062 266.046 747.938 266.046 751.9 265.821C755.744 265.639 759.149 264.761 761.955 261.944C764.761 259.139 765.639 255.733 765.831 251.889C766.056 247.927 766.056 236.062 765.831 232.1V232.1ZM760.713 256.14C759.878 258.239 758.261 259.856 756.151 260.702C752.992 261.955 745.496 261.666 742.005 261.666C738.514 261.666 731.008 261.944 727.86 260.702C725.761 259.867 724.144 258.25 723.298 256.14C722.045 252.981 722.334 245.486 722.334 241.995C722.334 238.504 722.056 230.997 723.298 227.849C724.133 225.75 725.75 224.133 727.86 223.287C731.019 222.034 738.514 222.323 742.005 222.323C745.496 222.323 753.003 222.045 756.151 223.287C758.25 224.122 759.867 225.739 760.713 227.849C761.966 231.008 761.677 238.504 761.677 241.995C761.677 245.486 761.966 252.992 760.713 256.14Z" fill="white"/>
<!-- LinkedIn -->
<path d="M837 222H800.991C799.341 222 798 223.359 798 225.028V260.972C798 262.641 799.341 264 800.991 264H837C838.65 264 840 262.641 840 260.972V225.028C840 223.359 838.65 222 837 222ZM810.694 258H804.469V237.956H810.703V258H810.694ZM807.581 235.219C805.584 235.219 803.972 233.597 803.972 231.609C803.972 229.622 805.584 228 807.581 228C809.569 228 811.191 229.622 811.191 231.609C811.191 233.606 809.578 235.219 807.581 235.219V235.219ZM834.028 258H827.803V248.25C827.803 245.925 827.756 242.934 824.569 242.934C821.325 242.934 820.828 245.466 820.828 248.081V258H814.603V237.956H820.575V240.694H820.659C821.494 239.119 823.528 237.459 826.556 237.459C832.856 237.459 834.028 241.612 834.028 247.012V258V258Z" fill="white"/>
<!-- Twitter -->
<path d="M915.066 234.716C915.096 235.142 915.096 235.569 915.096 235.995C915.096 249 905.198 263.985 887.107 263.985C881.533 263.985 876.355 262.37 872 259.569C872.792 259.66 873.553 259.69 874.376 259.69C878.975 259.69 883.208 258.137 886.589 255.487C882.264 255.396 878.64 252.563 877.391 248.665C878 248.756 878.609 248.817 879.249 248.817C880.132 248.817 881.015 248.695 881.838 248.482C877.33 247.568 873.949 243.609 873.949 238.827V238.706C875.259 239.437 876.782 239.893 878.396 239.954C875.746 238.188 874.01 235.173 874.01 231.761C874.01 229.934 874.497 228.259 875.35 226.797C880.193 232.766 887.472 236.665 895.634 237.091C895.482 236.36 895.391 235.599 895.391 234.838C895.391 229.416 899.777 225 905.228 225C908.061 225 910.619 226.188 912.416 228.107C914.639 227.68 916.771 226.858 918.66 225.731C917.929 228.015 916.375 229.934 914.335 231.152C916.315 230.939 918.233 230.391 920 229.629C918.66 231.579 916.985 233.315 915.066 234.716Z" fill="#F0F0F0"/>

<!-- Oliver 404 -->
<path d="M249.944 84.4H160.344V156.08L178.264 174H267.864V102.32L249.944 84.4ZM249.944 156.08H187.224L178.264 147.12V102.32H240.984L249.944 111.28V156.08ZM286.466 93.36V174H304.386V93.36H286.466ZM340.761 174V111.28H322.841V174H340.761ZM340.761 102.32V93.36H322.841V102.32H340.761ZM428.464 111.28V138.16L410.544 156.08H392.624L374.704 138.16V111.28H356.784V147.12L383.664 174H419.504L446.384 147.12V111.28H428.464ZM478.981 147.12V129.2H523.781L510.725 142.256L524.165 155.696L550.661 129.2L532.741 111.28H461.061V156.08L478.981 174H550.661V156.08H487.941L478.981 147.12ZM592.971 111.28L584.011 120.24V111.28H566.091V174H584.011V147.12L601.931 129.2H655.691V111.28H592.971ZM799.655 84.528V129.2H745.895V84.4H727.975V147.12H745.895V147.248H799.655V174.128H817.575V84.528H799.655ZM838.115 84.784V174.384H927.715V84.784H838.115ZM909.795 156.464H856.035V102.704H909.795V156.464ZM1019.28 84.528V129.2H965.52V84.4H947.6V147.12H965.52V147.248H1019.28V174.128H1037.2V84.528H1019.28Z" fill="#e0287d" class="shadow-magenta"/>
<path d="M249.944 84.4H160.344V156.08L178.264 174H267.864V102.32L249.944 84.4ZM249.944 156.08H187.224L178.264 147.12V102.32H240.984L249.944 111.28V156.08ZM286.466 93.36V174H304.386V93.36H286.466ZM340.761 174V111.28H322.841V174H340.761ZM340.761 102.32V93.36H322.841V102.32H340.761ZM428.464 111.28V138.16L410.544 156.08H392.624L374.704 138.16V111.28H356.784V147.12L383.664 174H419.504L446.384 147.12V111.28H428.464ZM478.981 147.12V129.2H523.781L510.725 142.256L524.165 155.696L550.661 129.2L532.741 111.28H461.061V156.08L478.981 174H550.661V156.08H487.941L478.981 147.12ZM592.971 111.28L584.011 120.24V111.28H566.091V174H584.011V147.12L601.931 129.2H655.691V111.28H592.971ZM799.655 84.528V129.2H745.895V84.4H727.975V147.12H745.895V147.248H799.655V174.128H817.575V84.528H799.655ZM838.115 84.784V174.384H927.715V84.784H838.115ZM909.795 156.464H856.035V102.704H909.795V156.464ZM1019.28 84.528V129.2H965.52V84.4H947.6V147.12H965.52V147.248H1019.28V174.128H1037.2V84.528H1019.28Z" fill="#1bc7fb" class="shadow-blue"/>
<path d="M249.944 84.4H160.344V156.08L178.264 174H267.864V102.32L249.944 84.4ZM249.944 156.08H187.224L178.264 147.12V102.32H240.984L249.944 111.28V156.08ZM286.466 93.36V174H304.386V93.36H286.466ZM340.761 174V111.28H322.841V174H340.761ZM340.761 102.32V93.36H322.841V102.32H340.761ZM428.464 111.28V138.16L410.544 156.08H392.624L374.704 138.16V111.28H356.784V147.12L383.664 174H419.504L446.384 147.12V111.28H428.464ZM478.981 147.12V129.2H523.781L510.725 142.256L524.165 155.696L550.661 129.2L532.741 111.28H461.061V156.08L478.981 174H550.661V156.08H487.941L478.981 147.12ZM592.971 111.28L584.011 120.24V111.28H566.091V174H584.011V147.12L601.931 129.2H655.691V111.28H592.971ZM799.655 84.528V129.2H745.895V84.4H727.975V147.12H745.895V147.248H799.655V174.128H817.575V84.528H799.655ZM838.115 84.784V174.384H927.715V84.784H838.115ZM909.795 156.464H856.035V102.704H909.795V156.464ZM1019.28 84.528V129.2H965.52V84.4H947.6V147.12H965.52V147.248H1019.28V174.128H1037.2V84.528H1019.28Z" fill="#F0F0F0" class="shadow-white"/>
<path d="M249.944 84.4H160.344V156.08L178.264 174H267.864V102.32L249.944 84.4ZM249.944 156.08H187.224L178.264 147.12V102.32H240.984L249.944 111.28V156.08ZM286.466 93.36V174H304.386V93.36H286.466ZM340.761 174V111.28H322.841V174H340.761ZM340.761 102.32V93.36H322.841V102.32H340.761ZM428.464 111.28V138.16L410.544 156.08H392.624L374.704 138.16V111.28H356.784V147.12L383.664 174H419.504L446.384 147.12V111.28H428.464ZM478.981 147.12V129.2H523.781L510.725 142.256L524.165 155.696L550.661 129.2L532.741 111.28H461.061V156.08L478.981 174H550.661V156.08H487.941L478.981 147.12ZM592.971 111.28L584.011 120.24V111.28H566.091V174H584.011V147.12L601.931 129.2H655.691V111.28H592.971ZM799.655 84.528V129.2H745.895V84.4H727.975V147.12H745.895V147.248H799.655V174.128H817.575V84.528H799.655ZM838.115 84.784V174.384H927.715V84.784H838.115ZM909.795 156.464H856.035V102.704H909.795V156.464ZM1019.28 84.528V129.2H965.52V84.4H947.6V147.12H965.52V147.248H1019.28V174.128H1037.2V84.528H1019.28Z" fill="#F0F0F0" class="username"/>

<!-- Oliver Botello -->
<path d="M226.84 249.656V231.224C226.84 226.328 229.288 223.88 234.184 223.88H245.416C250.312 223.88 252.76 226.328 252.76 231.224V249.656C252.76 254.552 250.312 257 245.416 257H234.184C229.288 257 226.84 254.552 226.84 249.656ZM230.872 250.088C230.872 252.264 231.96 253.352 234.136 253.352H245.464C247.64 253.352 248.728 252.264 248.728 250.088V230.792C248.728 228.616 247.64 227.528 245.464 227.528H234.136C231.96 227.528 230.872 228.616 230.872 230.792V250.088ZM260.257 250.184V221.48H264.097V250.568C264.097 252.776 265.217 253.944 267.457 254.072V257.384C262.657 257.384 260.257 254.984 260.257 250.184ZM272.726 227.384V222.872H276.95V227.384H272.726ZM272.918 257V232.04H276.758V257H272.918ZM281.569 232.712L282.001 232.04H285.313L292.609 253.64H293.569L300.865 232.04H304.177L304.609 232.712L296.209 257H289.969L281.569 232.712ZM309.003 249.8V239.24C309.003 234.44 311.403 232.04 316.203 232.04H322.443C327.243 232.04 329.643 234.44 329.643 239.24V246.008H312.843V250.28C312.843 252.52 313.963 253.64 316.203 253.64H328.683V255.56L326.763 257H316.203C311.403 257 309.003 254.6 309.003 249.8ZM312.843 242.888H325.803V238.76C325.803 236.52 324.683 235.4 322.443 235.4H316.203C313.963 235.4 312.843 236.52 312.843 238.76V242.888ZM336.757 257V234.92C337.877 233 339.957 232.04 342.997 232.04H347.797L349.717 233.48V235.4H343.525C342.181 235.4 341.205 235.768 340.597 236.504V257H336.757ZM366.82 257V223.88H382.036C386.932 223.88 389.38 226.328 389.38 231.224V234.536C389.38 235.624 389.06 236.552 388.42 237.32L386.74 239.336L388.756 241.016C389.812 241.88 390.34 243.16 390.34 244.856V249.656C390.34 254.552 387.892 257 382.996 257H366.82ZM370.852 253.352H383.044C385.22 253.352 386.308 252.264 386.308 250.088V244.712C386.308 242.536 385.22 241.448 383.044 241.448H370.852V253.352ZM370.852 237.8H382.084C384.26 237.8 385.348 236.712 385.348 234.536V230.792C385.348 228.616 384.26 227.528 382.084 227.528H370.852V237.8ZM396.847 249.8V239.24C396.847 234.44 399.247 232.04 404.047 232.04H410.767C415.567 232.04 417.967 234.44 417.967 239.24V249.8C417.967 254.6 415.567 257 410.767 257H404.047C399.247 257 396.847 254.6 396.847 249.8ZM400.687 250.28C400.687 252.52 401.807 253.64 404.047 253.64H410.767C413.007 253.64 414.127 252.52 414.127 250.28V238.76C414.127 236.52 413.007 235.4 410.767 235.4H404.047C401.807 235.4 400.687 236.52 400.687 238.76V250.28ZM425.07 249.8V223.88H428.91V232.04H438.03V235.4H428.91V250.28C428.91 252.52 430.03 253.64 432.27 253.64H438.51V255.56L436.59 257H432.27C427.47 257 425.07 254.6 425.07 249.8ZM443.675 249.8V239.24C443.675 234.44 446.075 232.04 450.875 232.04H457.115C461.915 232.04 464.315 234.44 464.315 239.24V246.008H447.515V250.28C447.515 252.52 448.635 253.64 450.875 253.64H463.355V255.56L461.435 257H450.875C446.075 257 443.675 254.6 443.675 249.8ZM447.515 242.888H460.475V238.76C460.475 236.52 459.355 235.4 457.115 235.4H450.875C448.635 235.4 447.515 236.52 447.515 238.76V242.888ZM471.429 250.184V221.48H475.269V250.568C475.269 252.776 476.389 253.944 478.629 254.072V257.384C473.829 257.384 471.429 254.984 471.429 250.184ZM483.898 250.184V221.48H487.738V250.568C487.738 252.776 488.858 253.944 491.098 254.072V257.384C486.298 257.384 483.898 254.984 483.898 250.184ZM496.175 249.8V239.24C496.175 234.44 498.575 232.04 503.375 232.04H510.095C514.895 232.04 517.295 234.44 517.295 239.24V249.8C517.295 254.6 514.895 257 510.095 257H503.375C498.575 257 496.175 254.6 496.175 249.8ZM500.015 250.28C500.015 252.52 501.135 253.64 503.375 253.64H510.095C512.335 253.64 513.455 252.52 513.455 250.28V238.76C513.455 236.52 512.335 235.4 510.095 235.4H503.375C501.135 235.4 500.015 236.52 500.015 238.76V250.28Z" fill="white"/>

</svg>
