<svg width="48" height="39" viewBox="0 0 48 39" fill="none" xmlns="http://www.w3.org/2000/svg">
<path d="M43.0659 9.71569C43.0964 10.1421 43.0964 10.5685 43.0964 10.9949C43.0964 23.9999 33.198 38.9847 15.1066 38.9847C9.53297 38.9847 4.35534 37.3704 0 34.5685C0.791906 34.6598 1.55325 34.6903 2.37562 34.6903C6.97453 34.6903 11.2081 33.1371 14.5888 30.4873C10.2639 30.3959 6.63956 27.5634 5.39081 23.6649C6 23.7562 6.60909 23.8172 7.24875 23.8172C8.13197 23.8172 9.01528 23.6953 9.83756 23.4822C5.32997 22.5684 1.94916 18.6091 1.94916 13.8274V13.7056C3.25875 14.4366 4.78172 14.8934 6.39581 14.9542C3.74606 13.1877 2.01009 10.1725 2.01009 6.76134C2.01009 4.93397 2.49731 3.25884 3.35016 1.79691C8.19281 7.76644 15.472 11.6648 23.6344 12.0913C23.4821 11.3603 23.3907 10.599 23.3907 9.83756C23.3907 4.41619 27.7765 0 33.2283 0C36.0607 0 38.6191 1.18781 40.4161 3.10659C42.6394 2.68022 44.7713 1.85784 46.6597 0.730969C45.9287 3.01528 44.3754 4.93406 42.3349 6.15225C44.3146 5.93916 46.2334 5.39081 47.9998 4.62947C46.6599 6.57862 44.9847 8.31459 43.0659 9.71569Z" fill="white"/>
</svg>
